<svg width="1024" height="1024" viewBox="0 0 1024 1024" fill="none" xmlns="http://www.w3.org/2000/svg">
<path d="M787.415 229.735C884.837 387.117 1012.54 872.231 508.503 850.279C4.47054 828.326 146.837 406.04 229.592 229.735C305.802 67.3743 349.125 306.439 508.503 306.439C667.881 306.439 689.992 72.3532 787.415 229.735Z" fill="#5F5A6C"/>
<path d="M271.784 258.864C276.177 244.189 294.759 239.697 305.37 250.745L374.917 323.163C385.608 334.296 380.194 352.83 365.19 356.457L266.852 380.227C251.849 383.854 238.567 369.839 242.993 355.052L271.784 258.864Z" fill="#F5F5F5"/>
<path d="M743.736 258.864C739.344 244.189 720.761 239.697 710.151 250.745L640.604 323.163C629.912 334.296 635.327 352.83 650.33 356.457L748.668 380.227C763.671 383.854 776.953 369.839 772.527 355.052L743.736 258.864Z" fill="#F5F5F5"/>
<path d="M526.25 618.223C520.641 606.43 504.334 606.43 498.725 618.223L488.173 640.414C483.181 650.912 490.594 663.168 501.935 663.168H523.04C534.381 663.168 541.794 650.912 536.803 640.414L526.25 618.223Z" fill="#F5F5F5"/>
<ellipse cx="357.094" cy="576.386" rx="51.7978" ry="64.7473" fill="#F5F5F5"/>
<ellipse cx="659.912" cy="576.386" rx="51.7978" ry="64.7473" fill="#F5F5F5"/>
</svg>
